<svg xmlns="http://www.w3.org/2000/svg" width="632" height="142" fill="none" viewBox="0 0 632 142"><path fill="url(#a)" d="M64.635 1a8.81 8.81 0 0 1 8.03 5.193l54.822 121.615c2.003 4.443.031 9.673-4.403 11.679-4.435 2.007-9.655.031-11.658-4.411l-46.79-103.8-46.792 103.8c-2.003 4.442-7.223 6.418-11.658 4.411-4.434-2.006-6.406-7.236-4.403-11.679L56.605 6.193l.288-.578A8.81 8.81 0 0 1 64.635 1"/><path fill="url(#b)" d="M64.635 56.907c1.548 0 2.951.913 3.58 2.33l31.326 70.615a3.916 3.916 0 1 1-7.159 3.181L64.635 70.485l-27.747 62.548a3.916 3.916 0 1 1-7.159-3.181l31.327-70.616a3.92 3.92 0 0 1 3.58-2.33" opacity=".85"/><path fill="#fff" d="M207.265 109.61H175V30h32.223q13.34 0 22.973 4.781 9.675 4.743 14.918 13.683 5.243 8.902 5.243 21.302 0 12.44-5.243 21.38-5.2 8.94-14.875 13.721-9.675 4.743-22.974 4.743m-11.167-16.404h10.357q7.331 0 12.404-2.255 5.114-2.294 7.714-7.424 2.643-5.17 2.643-13.761t-2.643-13.683q-2.642-5.13-7.8-7.386-5.115-2.293-12.616-2.293h-10.059zm94.779 17.531q-10.272 0-17.731-3.693-7.416-3.732-11.423-10.612-3.964-6.92-3.964-16.443 0-9.251 4.007-16.17 4.007-6.959 11.295-10.807 7.288-3.887 17.177-3.887 6.99 0 12.786 1.983 5.797 1.982 10.017 5.87 4.22 3.886 6.563 9.6 2.345 5.676 2.345 13.023v4.742h-56.901v-11.04h37.507q-.042-3.032-1.577-5.403t-4.219-3.693q-2.643-1.36-6.095-1.36-3.495 0-6.266 1.438-2.77 1.4-4.39 3.848-1.62 2.41-1.705 5.481v11.234q0 3.654 1.577 6.414 1.577 2.722 4.476 4.237t6.904 1.516q2.77 0 5.03-.7 2.259-.7 3.879-2.06a8.5 8.5 0 0 0 2.429-3.343l19.138.506q-1.194 5.869-5.243 10.223-4.006 4.315-10.528 6.725-6.521 2.371-15.088 2.371M330.193 132V49.902h20.629v10.224h.64q1.278-2.72 3.623-5.248 2.386-2.526 6.052-4.12 3.708-1.633 8.866-1.633 6.819 0 12.744 3.265 5.967 3.265 9.632 10.068t3.666 17.337q0 10.146-3.538 16.987-3.495 6.842-9.462 10.262-5.925 3.421-13.17 3.421-4.944 0-8.567-1.477t-6.095-3.887q-2.43-2.41-3.751-5.17h-.426V132zm20.416-52.244q0 4.82 1.407 8.396 1.449 3.576 4.134 5.56 2.729 1.943 6.521 1.943 3.837 0 6.522-1.944 2.685-1.982 4.049-5.559 1.406-3.576 1.406-8.396t-1.406-8.357q-1.364-3.538-4.049-5.481-2.643-1.944-6.522-1.944-3.836 0-6.521 1.905t-4.134 5.442q-1.407 3.537-1.407 8.435M425.409 30v79.61h-20.843V30zm41.426 80.737q-10.315 0-17.731-3.848-7.374-3.888-11.38-10.807-3.964-6.958-3.964-16.131 0-9.213 3.964-16.132 4.006-6.959 11.38-10.807 7.416-3.887 17.731-3.887 10.314 0 17.688 3.887 7.417 3.849 11.38 10.807 4.007 6.918 4.007 16.132 0 9.173-4.007 16.131-3.963 6.92-11.38 10.807-7.374 3.848-17.688 3.848m.128-14.344q3.75 0 6.35-2.099t3.964-5.83q1.407-3.732 1.407-8.63 0-4.976-1.407-8.708-1.363-3.73-3.964-5.83t-6.35-2.1q-3.879 0-6.564 2.1-2.643 2.1-4.049 5.83-1.365 3.731-1.364 8.708 0 4.898 1.364 8.63 1.406 3.73 4.049 5.83 2.685 2.1 6.564 2.1m102.621-46.492-22.462 59.708h-23.869l-22.419-59.708h21.951l12.062 41.127h.682l12.104-41.127zm22.289 60.718q-6.266 0-11.125-1.904-4.817-1.944-7.629-5.831-2.77-3.926-2.771-9.835 0-4.976 1.918-8.396 1.919-3.42 5.285-5.559 3.367-2.137 7.758-3.226 4.39-1.128 9.377-1.516 5.583-.466 8.993-.972 3.41-.544 4.944-1.516 1.577-1.011 1.577-2.838v-.194q0-2.993-2.259-4.626-2.258-1.632-6.095-1.632-4.134 0-6.649 1.632-2.514 1.633-3.197 4.51l-19.222-.623q.852-5.441 4.39-9.717 3.58-4.316 9.803-6.764 6.265-2.488 15.046-2.488 6.266 0 11.55 1.36 5.286 1.322 9.207 3.888 3.922 2.526 6.052 6.22Q631 64.284 631 69.026v40.583h-19.606v-8.319h-.512a17.3 17.3 0 0 1-4.475 5.131q-2.685 2.1-6.351 3.149-3.623 1.05-8.183 1.049m6.436-12.439q3.367 0 6.052-1.243 2.729-1.245 4.347-3.421 1.62-2.216 1.62-5.131V82.71q-.895.428-2.174.778-1.236.35-2.727.66-1.493.312-3.069.545-1.578.233-3.026.427-2.942.428-5.03 1.322-2.046.895-3.154 2.332-1.066 1.4-1.066 3.343 0 2.955 2.302 4.51 2.344 1.554 5.925 1.554"/><defs><linearGradient id="a" x1="-9.766" x2="-9.766" y1="166.75" y2="-29.404" gradientUnits="userSpaceOnUse"><stop stop-color="#06b6d4"/><stop offset="1" stop-color="#ec4899"/></linearGradient><linearGradient id="b" x1="-9.766" x2="-9.766" y1="166.75" y2="-29.404" gradientUnits="userSpaceOnUse"><stop stop-color="#06b6d4"/><stop offset="1" stop-color="#ec4899"/></linearGradient></defs></svg>