<svg width="300" height="75" viewBox="0 0 300 75" fill="none" xmlns="http://www.w3.org/2000/svg">
<g clip-path="url(#clip0_17_34)">
<path d="M277.727 61.0993C276.467 61.0993 275.3 60.8214 274.227 60.2658C273.153 59.7101 272.29 58.9835 271.637 58.0858C271.03 57.1882 270.727 56.2051 270.727 55.1365C270.727 53.6832 271.217 52.465 272.197 51.4819C273.223 50.4988 274.717 49.6226 276.677 48.8532L282.907 46.3526C283.84 45.968 284.4 45.626 284.587 45.3268C284.82 45.0276 284.937 44.4719 284.937 43.6598L285.007 40.0052C285.053 38.8084 284.82 37.868 284.307 37.1841C283.793 36.4574 283.023 36.0941 281.997 36.0941C281.39 36.0941 280.783 36.2223 280.177 36.4788C279.57 36.6925 279.103 36.949 278.777 37.2482C278.637 37.4192 278.52 37.6329 278.427 37.8894C278.38 38.1031 278.357 38.3382 278.357 38.5946C278.357 38.8511 278.38 39.1717 278.427 39.5564C278.473 39.8983 278.497 40.1975 278.497 40.454C278.497 40.7105 278.123 41.0524 277.377 41.4798C276.63 41.8645 275.767 42.2279 274.787 42.5698C273.807 42.869 272.967 43.0186 272.267 43.0186C271.94 43.0186 271.637 42.8904 271.357 42.6339C271.123 42.3775 271.007 42.0569 271.007 41.6722C271.007 40.9883 271.263 40.3258 271.777 39.6846C272.29 39.0007 273.13 38.2313 274.297 37.3764C275.51 36.4361 276.84 35.6026 278.287 34.8759C279.733 34.1493 281.157 33.5722 282.557 33.1448C284.003 32.7174 285.217 32.5036 286.197 32.5036C288.717 32.5036 290.723 33.2517 292.217 34.7477C293.71 36.201 294.41 38.1458 294.317 40.5822L293.967 53.5336C293.92 54.5167 294.107 55.3502 294.527 56.0341C294.947 56.718 295.46 57.06 296.067 57.06C296.953 57.06 297.723 56.7821 298.377 56.2265C298.517 56.0982 298.657 56.0341 298.797 56.0341C299.03 56.0341 299.217 56.0982 299.357 56.2265C299.543 56.3547 299.637 56.5257 299.637 56.7394C299.637 57.2523 299.217 57.9149 298.377 58.727C297.49 59.4964 296.557 60.0734 295.577 60.4581C294.597 60.8856 293.57 61.0993 292.497 61.0993C289.883 61.0993 287.713 59.8811 285.987 57.4447H285.847C284.307 58.727 282.907 59.646 281.647 60.2017C280.433 60.8001 279.127 61.0993 277.727 61.0993ZM281.927 56.9318C282.44 56.9318 282.86 56.8676 283.187 56.7394C283.513 56.5684 283.84 56.312 284.167 55.97C284.307 55.799 284.423 55.5853 284.517 55.3289C284.61 55.0297 284.657 54.6877 284.657 54.303L284.867 49.6867C284.867 49.2592 284.797 48.9814 284.657 48.8532C284.517 48.7249 284.353 48.6608 284.167 48.6608C284.073 48.6608 283.957 48.6822 283.817 48.7249C283.677 48.7677 283.513 48.8318 283.327 48.9173C281.973 49.5157 280.97 50.1355 280.317 50.7766C279.663 51.3751 279.337 52.3582 279.337 53.726C279.337 54.9655 279.617 55.8204 280.177 56.2906C280.737 56.718 281.32 56.9318 281.927 56.9318Z" fill="white"/>
<path d="M255.331 61.5481C255.051 61.5481 254.748 61.2702 254.421 60.7146C254.141 60.1589 253.814 59.4964 253.441 58.727C253.068 57.9576 252.671 57.1027 252.251 56.1623C251.831 55.1792 251.434 54.303 251.061 53.5336C249.894 51.0117 248.681 48.5539 247.421 46.1603C246.161 43.7666 244.924 41.3302 243.711 38.8511C243.291 37.9107 242.801 37.12 242.241 36.4788C241.681 35.7949 240.981 35.3247 240.141 35.0682C239.674 34.8973 239.348 34.7263 239.161 34.5553C238.974 34.3416 238.881 34.0638 238.881 33.7218C238.881 33.3799 239.068 33.1661 239.441 33.0807C239.861 32.9952 240.234 32.9524 240.561 32.9524C241.681 32.9524 242.544 32.9952 243.151 33.0807C243.804 33.1234 244.434 33.1875 245.041 33.273C245.648 33.3158 246.464 33.3371 247.491 33.3371C248.471 33.3371 249.334 33.3158 250.081 33.273C250.874 33.1875 251.668 33.1234 252.461 33.0807C253.301 32.9952 254.258 32.9524 255.331 32.9524C255.658 32.9524 256.008 33.0165 256.381 33.1448C256.801 33.273 257.011 33.4867 257.011 33.7859C257.011 34.1706 256.848 34.4271 256.521 34.5553C256.194 34.6836 255.821 34.8332 255.401 35.0041C254.934 35.1751 254.538 35.4957 254.211 35.9659C253.931 36.4361 253.791 37.0345 253.791 37.7611C253.791 38.1458 253.791 38.5091 253.791 38.8511C253.791 39.1503 253.884 39.4709 254.071 39.8128L258.761 50.3919C258.808 50.3919 258.831 50.3919 258.831 50.3919C258.878 50.3919 258.924 50.3919 258.971 50.3919L263.101 40.2616C263.288 39.8769 263.404 39.5136 263.451 39.1717C263.498 38.8297 263.521 38.5091 263.521 38.2099C263.521 37.4405 263.334 36.7994 262.961 36.2865C262.634 35.7308 262.074 35.3247 261.281 35.0682C260.861 34.94 260.488 34.8118 260.161 34.6836C259.881 34.5126 259.741 34.2347 259.741 33.8501C259.741 33.5508 259.928 33.3371 260.301 33.2089C260.674 33.0807 261.024 33.0165 261.351 33.0165C262.611 33.0593 263.544 33.102 264.151 33.1448C264.804 33.1875 265.481 33.2089 266.181 33.2089C266.881 33.2089 267.558 33.1875 268.211 33.1448C268.864 33.102 269.798 33.0593 271.011 33.0165C271.338 33.0165 271.688 33.0593 272.061 33.1448C272.481 33.2303 272.691 33.444 272.691 33.7859C272.691 34.3843 272.248 34.8332 271.361 35.1324C270.521 35.3888 269.728 35.8804 268.981 36.607C268.281 37.2909 267.698 38.1244 267.231 39.1075L261.771 51.6742C261.678 51.9735 261.514 52.3368 261.281 52.7642C261.094 53.1917 260.884 53.6405 260.651 54.1106C260.464 54.5381 260.278 54.9442 260.091 55.3288C259.904 55.7135 259.718 56.0555 259.531 56.3547C259.391 56.6539 259.158 57.1455 258.831 57.8294C258.504 58.5133 258.178 59.1972 257.851 59.8811C257.524 60.565 257.221 61.1206 256.941 61.5481H255.331Z" fill="white"/>
<path d="M223.041 61.0993C220.241 61.0993 217.721 60.5222 215.481 59.3681C213.241 58.2141 211.445 56.6325 210.091 54.6236C208.785 52.5719 208.131 50.2637 208.131 47.6991C208.131 45.6474 208.551 43.7025 209.391 41.8645C210.231 40.0265 211.398 38.4023 212.891 36.9917C214.385 35.5812 216.135 34.4698 218.141 33.6577C220.148 32.8456 222.295 32.4395 224.581 32.4395C227.475 32.4395 230.088 33.0593 232.421 34.2989C234.755 35.5384 236.598 37.1841 237.951 39.2358C239.351 41.2447 240.051 43.4461 240.051 45.8397C240.051 48.5753 239.398 51.1186 238.091 53.4695C236.831 55.7777 234.941 57.637 232.421 59.0476C229.948 60.4154 226.821 61.0993 223.041 61.0993ZM224.441 58.2782C225.421 58.2782 226.261 58.1072 226.961 57.7652C227.708 57.3806 228.315 56.8249 228.781 56.0982C229.341 55.2434 229.715 54.0893 229.901 52.636C230.135 51.1399 230.251 49.3875 230.251 47.3785C230.251 45.0703 229.971 43.0186 229.411 41.2234C228.851 39.3854 228.058 37.9321 227.031 36.8635C226.051 35.7949 224.885 35.2606 223.531 35.2606C222.785 35.2606 222.108 35.3888 221.501 35.6453C220.895 35.859 220.358 36.1796 219.891 36.607C219.098 37.4619 218.538 38.6801 218.211 40.2616C217.931 41.8432 217.791 43.788 217.791 46.0962C217.791 48.1479 218.071 50.1141 218.631 51.9948C219.238 53.8328 220.031 55.3502 221.011 56.5471C222.038 57.7011 223.181 58.2782 224.441 58.2782Z" fill="white"/>
<path d="M192.272 60.394C191.852 60.394 191.502 60.3299 191.222 60.2016C190.989 60.0307 190.872 59.7956 190.872 59.4964C190.872 59.1544 191.012 58.898 191.292 58.727C191.572 58.5133 191.969 58.3423 192.482 58.2141C193.182 58.0003 193.789 57.7652 194.302 57.5088C194.862 57.2523 195.142 56.6753 195.142 55.7777V24.938C195.142 23.7839 194.956 22.7794 194.582 21.9245C194.256 21.0696 193.509 20.5353 192.342 20.3216C191.876 20.2361 191.642 19.9155 191.642 19.3599C191.642 18.8042 191.852 18.4836 192.272 18.3981C193.486 18.1844 194.792 17.8852 196.192 17.5005C197.592 17.0731 198.922 16.6456 200.182 16.2182C201.442 15.748 202.422 15.4061 203.122 15.1923C203.496 15.0641 203.799 15 204.032 15C204.312 15 204.499 15.0855 204.592 15.2565C204.686 15.3847 204.732 15.5557 204.732 15.7694C204.732 16.0686 204.662 16.6243 204.522 17.4364C204.429 18.2485 204.359 19.1675 204.312 20.1934V55.6494C204.312 56.5898 204.569 57.1882 205.082 57.4447C205.642 57.6584 206.272 57.8721 206.972 58.0858C207.486 58.2568 207.882 58.4278 208.162 58.5987C208.442 58.7697 208.582 59.0262 208.582 59.3681C208.582 59.6673 208.442 59.9024 208.162 60.0734C207.929 60.2016 207.603 60.2658 207.183 60.2658C206.296 60.2658 205.409 60.2444 204.522 60.2016C203.682 60.1589 202.842 60.1375 202.002 60.1375C201.209 60.0948 200.392 60.0734 199.552 60.0734C198.759 60.0734 197.966 60.0948 197.172 60.1375C196.426 60.1803 195.656 60.223 194.862 60.2658C194.069 60.3512 193.206 60.394 192.272 60.394Z" fill="white"/>
<path d="M156.843 77C156.517 77 156.19 76.9145 155.863 76.7435C155.583 76.6153 155.443 76.4016 155.443 76.1024C155.443 75.7604 155.583 75.4826 155.863 75.2689C156.19 75.0979 156.587 74.9483 157.053 74.8201C158.033 74.5208 158.71 74.2003 159.083 73.8583C159.503 73.5591 159.713 73.0676 159.713 72.3837V41.6722C159.713 41.1165 159.597 40.5822 159.363 40.0693C159.13 39.5564 158.803 39.1076 158.383 38.7229C157.963 38.2954 157.427 38.039 156.773 37.9535C156.493 37.868 156.283 37.7611 156.143 37.6329C156.003 37.4619 155.933 37.1841 155.933 36.7994C155.933 36.4574 156.003 36.201 156.143 36.03C156.283 35.859 156.47 35.7522 156.703 35.7094C158.337 35.3675 160.087 34.9187 161.953 34.363C163.82 33.8073 165.43 33.2303 166.783 32.6319C166.97 32.5464 167.157 32.4609 167.343 32.3754C167.577 32.2472 167.787 32.183 167.973 32.183C168.253 32.183 168.417 32.2685 168.463 32.4395C168.557 32.5677 168.603 32.7387 168.603 32.9524C168.603 33.2944 168.533 33.8714 168.393 34.6836C168.3 35.453 168.253 36.1155 168.253 36.6711C168.253 37.0986 168.3 37.3551 168.393 37.4405C168.86 37.0131 169.677 36.4361 170.843 35.7094C172.057 34.9828 173.433 34.3416 174.973 33.7859C176.513 33.2303 178.007 32.9524 179.453 32.9524C181.973 32.9524 184.097 33.5722 185.823 34.8118C187.597 36.0086 188.95 37.5688 189.883 39.4922C190.817 41.373 191.283 43.3606 191.283 45.455C191.283 47.464 190.863 49.4088 190.023 51.2896C189.23 53.1703 188.087 54.88 186.593 56.4188C185.1 57.9149 183.373 59.1117 181.413 60.0093C179.453 60.9069 177.353 61.3557 175.113 61.3557C174.6 61.3557 173.97 61.2916 173.223 61.1634C172.523 61.0352 171.8 60.8642 171.053 60.6505C170.353 60.4367 169.7 60.223 169.093 60.0093C169.047 60.0093 169 60.0734 168.953 60.2017C168.907 60.3299 168.86 60.4795 168.813 60.6505C168.813 60.8214 168.813 60.9924 168.813 61.1634V71.8066C168.813 72.3623 168.953 72.8325 169.233 73.2172C169.56 73.6019 170.003 73.9011 170.563 74.1148C171.123 74.3712 171.8 74.6063 172.593 74.8201C173.06 74.9483 173.433 75.0979 173.713 75.2689C173.993 75.4826 174.133 75.7604 174.133 76.1024C174.133 76.3588 173.993 76.5726 173.713 76.7435C173.48 76.9145 173.223 77 172.943 77C171.543 77 170.073 76.9359 168.533 76.8076C167.04 76.7222 165.687 76.6794 164.473 76.6794C163.68 76.6794 162.863 76.7008 162.023 76.7435C161.23 76.7863 160.39 76.829 159.503 76.8718C158.663 76.9573 157.777 77 156.843 77ZM174.903 58.4064C175.417 58.4064 176.023 58.2354 176.723 57.8935C177.47 57.5088 178.193 56.9104 178.893 56.0982C179.64 55.2861 180.247 54.1961 180.713 52.8283C181.227 51.4605 181.483 49.7721 181.483 47.7632C181.483 45.4123 181.227 43.5529 180.713 42.1851C180.2 40.7746 179.57 39.7273 178.823 39.0434C178.077 38.3595 177.307 37.9107 176.513 37.697C175.767 37.4405 175.113 37.3123 174.553 37.3123C173.713 37.3123 172.85 37.4833 171.963 37.8252C171.077 38.1672 170.353 38.5733 169.793 39.0434C169.233 39.5136 168.953 39.9411 168.953 40.3258C168.953 40.6677 168.953 41.3302 168.953 42.3133C168.953 43.2964 168.93 44.3864 168.883 45.5832C168.883 46.7801 168.86 47.87 168.813 48.8532C168.813 49.8363 168.813 50.5202 168.813 50.9049C168.813 51.888 169.047 52.9779 169.513 54.1748C170.027 55.3288 170.727 56.3333 171.613 57.1882C172.547 58.0003 173.643 58.4064 174.903 58.4064Z" fill="white"/>
<path d="M142.004 61.0993C139.484 61.0993 137.22 60.5009 135.214 59.304C133.254 58.0645 131.69 56.3975 130.524 54.303C129.404 52.1658 128.844 49.7508 128.844 47.0579C128.844 44.3651 129.52 41.9287 130.874 39.7487C132.227 37.526 134.07 35.7735 136.404 34.4912C138.737 33.1662 141.304 32.5036 144.104 32.5036C146.11 32.5036 147.907 32.9097 149.494 33.7218C151.08 34.4912 152.34 35.5384 153.274 36.8635C154.254 38.1886 154.744 39.6846 154.744 41.3516C154.744 42.9759 154.02 43.788 152.574 43.788H138.574C137.92 43.788 137.43 43.959 137.104 44.3009C136.824 44.6429 136.684 45.2199 136.684 46.0321C136.684 47.6563 137.08 49.1524 137.874 50.5202C138.667 51.8452 139.74 52.8925 141.094 53.6618C142.447 54.4312 144.01 54.8159 145.784 54.8159C147.137 54.8159 148.374 54.5808 149.494 54.1107C150.66 53.6405 151.804 52.9993 152.924 52.1872C153.11 52.059 153.274 51.9521 153.414 51.8666C153.6 51.7384 153.764 51.6743 153.904 51.6743C154.37 51.6743 154.604 51.9521 154.604 52.5078C154.604 52.9779 154.417 53.6191 154.044 54.4312C153.577 55.4998 152.784 56.5684 151.664 57.637C150.59 58.6629 149.237 59.4964 147.604 60.1375C145.97 60.7787 144.104 61.0993 142.004 61.0993ZM138.574 41.0951H142.774C144.08 41.0951 144.99 41.0738 145.504 41.031C146.017 40.9883 146.484 40.9028 146.904 40.7746C147.137 40.6891 147.324 40.4754 147.464 40.1334C147.604 39.7915 147.674 39.4068 147.674 38.9793C147.674 37.8252 147.23 36.8849 146.344 36.1582C145.504 35.4316 144.454 35.0683 143.194 35.0683C142.214 35.0683 141.28 35.3247 140.394 35.8377C139.554 36.3078 138.854 36.949 138.294 37.7611C137.78 38.5305 137.547 39.3427 137.594 40.1975C137.594 40.7959 137.92 41.0951 138.574 41.0951Z" fill="white"/>
<path d="M102.48 60.6505C100.893 60.6505 99.1433 60.6077 97.23 60.5222C95.3633 60.4367 93.6133 60.3513 91.98 60.2658C90.3467 60.223 89.11 60.2016 88.27 60.2016C87.3367 60.2016 86.31 60.2016 85.19 60.2016C84.07 60.2444 82.9033 60.2871 81.69 60.3299C80.5233 60.3726 79.4033 60.394 78.33 60.394C78.0033 60.394 77.7 60.3299 77.42 60.2016C77.14 60.0307 77 59.7956 77 59.4964C77 59.1117 77.1167 58.8125 77.35 58.5988C77.63 58.385 78.0033 58.2354 78.47 58.1499C80.2433 57.808 81.4567 57.3806 82.11 56.8676C82.7633 56.312 83.09 55.3502 83.09 53.9824V24.8738C83.09 23.506 82.7867 22.5443 82.18 21.9886C81.5733 21.3902 80.3367 20.8987 78.47 20.514C78.0033 20.4285 77.63 20.2789 77.35 20.0651C77.1167 19.8514 77 19.5522 77 19.1675C77 18.8683 77.14 18.6332 77.42 18.4623C77.7 18.2913 78.0033 18.2058 78.33 18.2058C79.4033 18.2058 80.5233 18.2272 81.69 18.2699C82.9033 18.3126 84.07 18.3768 85.19 18.4623C86.3567 18.505 87.4067 18.5264 88.34 18.5264C89.0867 18.5264 90.0667 18.505 91.28 18.4623C92.4933 18.3768 93.8 18.3126 95.2 18.2699C96.6467 18.1844 98.0233 18.1203 99.33 18.0776C100.683 17.9921 101.78 17.9493 102.62 17.9493C106.167 17.9493 109.433 18.4623 112.42 19.4881C115.453 20.4712 118.09 21.9031 120.33 23.7839C122.617 25.6219 124.39 27.8018 125.65 30.3237C126.91 32.8456 127.54 35.6239 127.54 38.6587C127.54 41.5226 126.98 44.2796 125.86 46.9297C124.74 49.537 123.107 51.888 120.96 53.9824C118.813 56.0341 116.2 57.6584 113.12 58.8552C110.04 60.052 106.493 60.6505 102.48 60.6505ZM101.43 57.3806C104.603 57.3806 107.263 56.6753 109.41 55.2647C111.557 53.8114 113.143 51.8238 114.17 49.302C115.243 46.7373 115.78 43.7666 115.78 40.3899C115.78 37.526 115.43 34.94 114.73 32.6318C114.077 30.2809 113.097 28.272 111.79 26.605C110.53 24.9379 108.943 23.6556 107.03 22.758C105.163 21.8176 103.04 21.3475 100.66 21.3475C99.1667 21.3475 97.9067 21.3902 96.88 21.4757C95.9 21.5612 95.1533 21.7749 94.64 22.1169C94.1267 22.4588 93.87 23.0145 93.87 23.7839V51.7384C93.87 53.1489 94.15 54.2603 94.71 55.0724C95.3167 55.8845 96.18 56.4829 97.3 56.8676C98.4667 57.2096 99.8433 57.3806 101.43 57.3806Z" fill="white"/>
<path d="M32.5015 0C34.27 0 35.8751 1.03651 36.603 2.64953L64.603 64.698C65.6259 66.9647 64.6189 69.633 62.354 70.6568C60.0891 71.6804 57.4229 70.6726 56.3999 68.406L32.5015 15.4466L8.60303 68.406C7.58006 70.6726 4.91388 71.6804 2.64893 70.6568C0.384048 69.633 -0.622972 66.9647 0.399909 64.698L28.3999 2.64953L28.5474 2.35438C29.33 0.911398 30.8435 0 32.5015 0Z" fill="url(#paint0_linear_17_34)"/>
<path opacity="0.85" d="M32.5015 28.5238C33.2921 28.5238 34.0087 28.9898 34.3296 29.7123L50.3296 65.7406C50.7776 66.7501 50.3223 67.932 49.313 68.3803C48.3036 68.8283 47.1216 68.3731 46.6733 67.3637L32.5015 35.4516L18.3296 67.3637C17.8813 68.3731 16.6994 68.8283 15.6899 68.3803C14.6806 67.932 14.2254 66.7501 14.6733 65.7406L30.6733 29.7123C30.9942 28.9898 31.7109 28.5238 32.5015 28.5238Z" fill="url(#paint1_linear_17_34)"/>
</g>
<defs>
<linearGradient id="paint0_linear_17_34" x1="-5.49853" y1="84.5661" x2="-5.49853" y2="-15.5121" gradientUnits="userSpaceOnUse">
<stop stop-color="#06B6D4"/>
<stop offset="1" stop-color="#EC4899"/>
</linearGradient>
<linearGradient id="paint1_linear_17_34" x1="-5.49854" y1="84.5661" x2="-5.49854" y2="-15.5121" gradientUnits="userSpaceOnUse">
<stop stop-color="#06B6D4"/>
<stop offset="1" stop-color="#EC4899"/>
</linearGradient>
<clipPath id="clip0_17_34">
<rect width="300" height="75" fill="white"/>
</clipPath>
</defs>
</svg>
