<svg width="2083" height="368" viewBox="0 0 2083 368" fill="none" xmlns="http://www.w3.org/2000/svg">
<path d="M605.222 286.415H531.583C527.717 286.415 524.583 283.281 524.583 279.415V89.784C524.583 85.918 527.717 82.784 531.583 82.784H605.115C627.343 82.784 646.482 86.8606 662.532 95.0138C678.653 103.101 691.081 114.767 699.816 130.013C708.551 145.192 712.918 163.355 712.918 184.5C712.918 205.712 708.551 223.94 699.816 239.186C691.152 254.432 678.759 266.131 662.639 274.284C646.518 282.371 627.379 286.415 605.222 286.415ZM577.312 237.456C577.312 241.322 580.446 244.456 584.312 244.456H603.198C615.413 244.456 625.746 242.533 634.197 238.689C642.718 234.778 649.145 228.448 653.477 219.698C657.88 210.882 660.082 199.149 660.082 184.5C660.082 169.851 657.88 158.184 653.477 149.501C649.074 140.751 642.576 134.454 633.983 130.609C625.461 126.699 614.951 124.743 602.452 124.743H584.312C580.446 124.743 577.312 127.877 577.312 131.743V237.456Z" fill="white"/>
<path d="M756.703 286.415C752.837 286.415 749.703 283.281 749.703 279.415V89.784C749.703 85.918 752.837 82.784 756.703 82.784H894.82C898.686 82.784 901.82 85.918 901.82 89.784V115.755C901.82 119.621 898.686 122.755 894.82 122.755H809.433C805.567 122.755 802.433 125.889 802.433 129.755V157.515C802.433 161.381 805.567 164.515 809.433 164.515H887.044C890.91 164.515 894.044 167.649 894.044 171.515V197.585C894.044 201.451 890.91 204.585 887.044 204.585H809.433C805.567 204.585 802.433 207.719 802.433 211.585V239.444C802.433 243.31 805.567 246.444 809.433 246.444H894.82C898.686 246.444 901.82 249.578 901.82 253.444V279.415C901.82 283.281 898.686 286.415 894.82 286.415H756.703Z" fill="white"/>
<path d="M940.705 122.755C936.839 122.755 933.705 119.621 933.705 115.755V89.784C933.705 85.918 936.839 82.784 940.705 82.784H1111.1C1114.97 82.784 1118.1 85.918 1118.1 89.784V115.755C1118.1 119.621 1114.97 122.755 1111.1 122.755H1058.95C1055.08 122.755 1051.95 125.889 1051.95 129.755V279.415C1051.95 283.281 1048.81 286.415 1044.95 286.415H1006.96C1003.1 286.415 999.963 283.281 999.963 279.415V129.755C999.963 125.889 996.829 122.755 992.963 122.755H940.705Z" fill="white"/>
<path d="M1156.85 286.415C1152.98 286.415 1149.85 283.281 1149.85 279.415V89.784C1149.85 85.918 1152.98 82.784 1156.85 82.784H1239.97C1256.3 82.784 1270.4 85.5349 1282.26 91.0366C1294.19 96.4721 1303.39 104.294 1309.85 114.502C1316.31 124.644 1319.54 136.675 1319.54 150.595C1319.54 164.714 1316.24 176.711 1309.64 186.588C1303.03 196.398 1293.66 203.889 1281.52 209.059C1269.37 214.163 1254.99 216.715 1238.37 216.715H1188.38C1184.52 216.715 1181.38 213.581 1181.38 209.715V184.938C1181.38 181.072 1184.52 177.938 1188.38 177.938H1228.57C1236.53 177.938 1243.17 176.977 1248.49 175.054C1253.89 173.066 1257.97 170.083 1260.74 166.106C1263.51 162.062 1264.9 156.892 1264.9 150.595C1264.9 144.297 1263.51 139.094 1260.74 134.984C1257.97 130.808 1253.89 127.693 1248.49 125.638C1243.1 123.517 1236.46 122.456 1228.57 122.456H1209.58C1205.71 122.456 1202.58 125.59 1202.58 129.456V279.415C1202.58 283.281 1199.45 286.415 1195.58 286.415H1156.85ZM1268.65 193.349C1271.14 193.349 1273.45 194.671 1274.7 196.82L1320.85 275.886C1323.58 280.552 1320.21 286.415 1314.81 286.415H1273.54C1271.03 286.415 1268.71 285.071 1267.46 282.892L1222.21 203.826C1219.54 199.16 1222.91 193.349 1228.29 193.349H1268.65Z" fill="white"/>
<path d="M1403.26 281.642C1402.3 284.494 1399.63 286.415 1396.62 286.415H1354.96C1350.11 286.415 1346.73 281.598 1348.38 277.035L1416.92 87.4044C1417.93 84.6315 1420.56 82.784 1423.51 82.784H1483.88C1486.83 82.784 1489.46 84.6315 1490.46 87.4044L1559.01 277.035C1560.66 281.598 1557.28 286.415 1552.43 286.415H1510.76C1507.75 286.415 1505.08 284.496 1504.13 281.647L1454.76 134.897C1454.6 134.414 1454.15 134.089 1453.64 134.089C1453.13 134.089 1452.68 134.415 1452.52 134.898L1403.26 281.642ZM1394.09 213.275C1394.09 209.409 1397.23 206.275 1401.09 206.275H1505.55C1509.41 206.275 1512.55 209.409 1512.55 213.275V236.66C1512.55 240.526 1509.41 243.66 1505.55 243.66H1401.09C1397.23 243.66 1394.09 240.526 1394.09 236.66V213.275Z" fill="white"/>
<path d="M1641.36 82.784C1643.78 82.784 1646.03 84.0378 1647.31 86.0984L1684.65 146.388C1684.93 146.84 1685.42 147.115 1685.95 147.115C1686.48 147.115 1686.97 146.842 1687.25 146.394L1725.01 86.0701C1726.29 84.0257 1728.53 82.784 1730.95 82.784H1773.22C1778.77 82.784 1782.11 88.9272 1779.1 93.5848L1722.75 180.737C1721.23 183.082 1721.25 186.103 1722.8 188.425L1780.95 275.529C1784.05 280.18 1780.72 286.415 1775.13 286.415H1731.57C1729.17 286.415 1726.93 285.179 1725.65 283.142L1687.26 222.11C1686.97 221.661 1686.48 221.388 1685.95 221.388C1685.42 221.388 1684.93 221.661 1684.64 222.11L1646.25 283.142C1644.97 285.179 1642.73 286.415 1640.33 286.415H1597.17C1591.58 286.415 1588.25 280.194 1591.34 275.541L1649.22 188.424C1650.76 186.102 1650.78 183.085 1649.26 180.745L1592.82 93.5891C1589.8 88.9317 1593.14 82.784 1598.69 82.784H1641.36Z" fill="white"/>
<path d="M1865.08 82.784C1868.95 82.784 1872.08 85.918 1872.08 89.784V279.415C1872.08 283.281 1868.95 286.415 1865.08 286.415H1826.35C1822.49 286.415 1819.35 283.281 1819.35 279.415V89.784C1819.35 85.918 1822.49 82.784 1826.35 82.784H1865.08Z" fill="white"/>
<path d="M2035.46 143.833C2031.86 143.833 2028.97 141.039 2027.78 137.637C2026.25 133.248 2023.53 129.646 2019.63 126.831C2014.09 122.721 2006.17 120.667 1995.87 120.667C1989.05 120.667 1983.37 121.495 1978.83 123.152C1974.28 124.809 1970.87 127.096 1968.6 130.013C1966.33 132.863 1965.16 136.144 1965.09 139.856C1964.94 142.905 1965.58 145.59 1967 147.91C1968.5 150.23 1970.63 152.285 1973.4 154.075C1976.24 155.798 1979.64 157.323 1983.62 158.648C1987.6 159.974 1992.07 161.134 1997.04 162.128L2015.79 166.106C2026.59 168.293 2036.1 171.21 2044.34 174.855C2052.65 178.501 2059.61 182.843 2065.22 187.881C2070.9 192.918 2075.2 198.718 2078.11 205.281C2081.02 211.843 2082.51 219.201 2082.58 227.354C2082.51 240.213 2079.03 251.25 2072.14 260.464C2065.25 269.678 2055.35 276.737 2042.42 281.642C2029.57 286.547 2014.05 289 1995.87 289C1977.62 289 1961.71 286.448 1948.15 281.344C1934.58 276.24 1924.04 268.484 1916.51 258.078C1910.13 249.257 1906.38 238.461 1905.25 225.689C1904.91 221.801 1908.09 218.604 1911.99 218.604H1948.83C1952.52 218.604 1955.48 221.502 1956.37 225.082C1957.31 228.854 1958.87 232.164 1961.04 235.01C1964.38 239.385 1968.96 242.699 1974.78 244.953C1980.67 247.207 1987.49 248.334 1995.23 248.334C2002.33 248.334 2008.37 247.439 2013.34 245.649C2018.38 243.859 2022.25 241.373 2024.95 238.192C2027.65 235.01 2029.04 231.364 2029.11 227.255C2029.04 223.41 2027.76 220.129 2025.27 217.411C2022.79 214.627 2018.95 212.241 2013.77 210.252C2008.65 208.197 2002.12 206.308 1994.17 204.585L1971.37 199.613C1952.48 195.57 1937.6 189.041 1926.74 180.026C1915.87 170.944 1910.47 158.682 1910.55 143.237C1910.47 130.643 1914.1 119.606 1921.41 110.127C1928.73 100.648 1938.85 93.2572 1951.77 87.9543C1964.7 82.6514 1979.43 80 1995.98 80C2012.88 80 2027.55 82.6846 2039.97 88.0538C2052.47 93.3566 2062.17 100.814 2069.05 110.425C2074.63 118.208 2078 126.99 2079.15 136.772C2079.61 140.641 2076.42 143.833 2072.52 143.833H2035.46Z" fill="white"/>
<path d="M168.323 0C177.482 0 185.795 5.36803 189.565 13.7218L334.575 335.067C339.873 346.806 334.658 360.625 322.928 365.928C311.198 371.229 297.39 366.009 292.092 354.271L168.323 79.9971L44.5546 354.271C39.2567 366.009 25.4487 371.229 13.7187 365.928C1.98896 360.625 -3.22634 346.806 2.07111 335.067L147.081 13.7218L147.845 12.1932C151.898 4.72008 159.737 0 168.323 0Z" fill="url(#paint0_linear_71_8)"/>
<path opacity="0.85" d="M168.323 147.723C172.418 147.723 176.129 150.136 177.791 153.878L260.654 340.467C262.974 345.695 260.616 351.816 255.389 354.138C250.162 356.458 244.04 354.1 241.718 348.873L168.323 183.602L94.928 348.873C92.6062 354.1 86.4853 356.458 81.2571 354.138C76.03 351.816 73.6726 345.695 75.9922 340.467L158.855 153.878C160.517 150.136 164.229 147.723 168.323 147.723Z" fill="url(#paint1_linear_71_8)"/>
<defs>
<linearGradient id="paint0_linear_71_8" x1="-28.4766" y1="437.963" x2="-28.4766" y2="-80.3363" gradientUnits="userSpaceOnUse">
<stop stop-color="#06B6D4"/>
<stop offset="1" stop-color="#EC4899"/>
</linearGradient>
<linearGradient id="paint1_linear_71_8" x1="-28.4766" y1="437.963" x2="-28.4766" y2="-80.3364" gradientUnits="userSpaceOnUse">
<stop stop-color="#06B6D4"/>
<stop offset="1" stop-color="#EC4899"/>
</linearGradient>
</defs>
</svg>
